<svg width="183" height="188" viewBox="0 0 183 188" fill="none" xmlns="http://www.w3.org/2000/svg">
<path d="M59.2143 35.752C60.2852 37.607 59.6608 39.9784 57.8151 41.0653L50.4159 45.4229C48.7929 46.3787 48.2437 48.4641 49.1855 50.0953C50.1284 51.7286 52.2126 52.2948 53.8524 51.3632L61.1495 47.2173C63.014 46.158 65.3841 46.8018 66.4564 48.659L74.2416 62.1434C75.3242 64.0185 74.6731 66.4165 72.7908 67.4866L68.2814 70.0503C64.8305 72.0122 63.6368 76.4085 65.6216 79.8463L75.0832 96.2342C76.1607 98.1005 75.5213 100.487 73.655 101.565L35.5066 123.59C33.6402 124.668 31.2537 124.028 30.1762 122.162L8.70178 84.9668C3.03878 75.1581 -3.12593 63.1574 1.79294 52.9552C2.44269 51.6076 3.31479 50.3369 4.48142 49.1728L40.4042 13.0196C42.2162 11.1959 45.266 11.5925 46.5515 13.8189L59.2143 35.752Z" fill="#1C1C1C"/>
<path d="M166.668 77.9448C167.746 79.8111 167.106 82.1975 165.24 83.275L151.402 91.2646C149.775 92.2042 149.217 94.2853 150.157 95.9128C151.096 97.5403 153.177 98.0979 154.805 97.1583L162.669 92.6179C164.536 91.5404 166.922 92.1798 168 94.0461L175.739 107.452C176.815 109.314 176.18 111.695 174.321 112.776L160.778 120.65C159.132 121.607 158.57 123.715 159.522 125.364C160.476 127.017 162.59 127.583 164.242 126.629L171.653 122.351C173.519 121.273 175.906 121.912 176.983 123.779L181.607 131.788C183.279 134.683 182.929 138.33 180.661 140.786C171.393 150.826 161.153 160.201 151.335 169.743C148.884 172.125 144.83 171.587 143.121 168.627L102.046 97.4837C100.969 95.6174 101.608 93.2309 103.475 92.1534L153.643 63.1885C155.509 62.111 157.896 62.7505 158.973 64.6168L166.668 77.9448Z" fill="#1C1C1C"/>
<path d="M107.607 119.991C108.694 121.858 108.057 124.253 106.186 125.334L99.3323 129.291C97.3036 130.462 96.6065 133.055 97.7743 135.086L124.673 181.859C126.26 184.62 124.426 187.848 121.241 187.844L-nan -nanL121.241 187.844L87.9767 187.802C86.5844 187.8 85.2985 187.057 84.6023 185.851L67.3444 155.959C65.369 152.538 60.9938 151.365 57.5722 153.341L53.8597 155.484C51.9934 156.562 49.6069 155.922 48.5294 154.056L37.3867 134.756C36.3092 132.89 36.9486 130.503 38.815 129.426L91.0439 99.2713C92.9054 98.1965 95.2856 98.8296 96.3671 100.687L107.607 119.991Z" fill="#1C1C1C"/>
<path d="M89.7774 0.0304737C93.6465 0.0346813 96.9284 2.8731 97.4903 6.70117L101.828 36.2507C102.065 37.8648 104.373 37.9231 104.692 36.323L112.857 5.8482C113.772 2.43323 116.869 0.0599474 120.404 0.0638351L127.087 0.0711842C131.073 0.0756757 134.893 1.66327 137.708 4.48443L142.783 9.57045C145.778 12.5718 146.652 17.0902 144.993 20.992L124.752 68.5928C123.427 71.7086 121.125 74.3092 118.193 76.0021L100.092 86.4526C100.091 86.4531 100.091 86.4545 100.092 86.4555C100.092 86.4565 100.092 86.4578 100.091 86.4584L86.485 94.3134C84.6187 95.3909 82.2322 94.7514 81.1547 92.8851L73.3388 79.3473C72.2613 77.481 72.9008 75.0945 74.7672 74.017L79.1825 71.4679C82.6155 69.4859 83.7824 65.0902 81.7842 61.6666L50.8965 8.74202C50.0019 7.20911 50.2325 5.23854 51.5919 4.09736C54.472 1.67952 57.6803 -0.00440068 61.7635 8.63877e-06L89.7774 0.0304737Z" fill="#1C1C1C"/>
</svg>
