<svg width="207" height="37" viewBox="0 0 207 37" fill="none" xmlns="http://www.w3.org/2000/svg">
<path d="M4.70318 12.562H7.27918C7.78518 12.562 8.14551 12.4623 8.36018 12.263C8.59018 12.0483 8.70518 11.7033 8.70518 11.228V9.894C8.70518 9.41867 8.59018 9.08133 8.36018 8.882C8.13018 8.68267 7.75451 8.583 7.23318 8.583H4.70318C4.53451 8.583 4.45018 8.66733 4.45018 8.836V12.309C4.45018 12.4777 4.53451 12.562 4.70318 12.562ZM4.70318 6.214H7.04918C7.53985 6.214 7.90018 6.11433 8.13018 5.915C8.36018 5.70033 8.47518 5.35533 8.47518 4.88V3.983C8.47518 3.50767 8.36018 3.17033 8.13018 2.971C7.91551 2.75633 7.56285 2.649 7.07218 2.649H4.70318C4.53451 2.649 4.45018 2.73333 4.45018 2.902V5.961C4.45018 6.12967 4.53451 6.214 4.70318 6.214ZM1.52918 14.517L1.52918 0.693999C1.52918 0.372 1.69018 0.211 2.01218 0.211L7.53218 0.211C8.74351 0.211 9.67885 0.533 10.3382 1.177C10.9975 1.821 11.3272 2.741 11.3272 3.937V4.88C11.3272 6.18333 10.7215 7.02667 9.51018 7.41C10.1235 7.502 10.6142 7.755 10.9822 8.169C11.3502 8.56767 11.5342 9.14267 11.5342 9.894V11.274C11.5342 12.47 11.2045 13.39 10.5452 14.034C9.88585 14.678 8.95818 15 7.76218 15H2.01218C1.69018 15 1.52918 14.839 1.52918 14.517ZM21.854 0.211L23.786 0.211C24.1233 0.211 24.292 0.364333 24.292 0.670999V11.251C24.292 12.447 23.9547 13.3747 23.28 14.034C22.6207 14.678 21.693 15 20.497 15H17.967C16.7557 15 15.8203 14.678 15.161 14.034C14.5017 13.39 14.172 12.4623 14.172 11.251V0.693999C14.172 0.372 14.333 0.211 14.655 0.211L16.61 0.211C16.932 0.211 17.093 0.372 17.093 0.693999V11.113C17.093 11.6037 17.1927 11.9563 17.392 12.171C17.6067 12.3703 17.9517 12.47 18.427 12.47H20.014C20.5047 12.47 20.8497 12.3703 21.049 12.171C21.2637 11.9563 21.371 11.6037 21.371 11.113V0.693999C21.371 0.372 21.532 0.211 21.854 0.211ZM30.1931 0.693999V14.517C30.1931 14.839 30.0321 15 29.7101 15H27.7551C27.4331 15 27.2721 14.839 27.2721 14.517V0.693999C27.2721 0.372 27.4331 0.211 27.7551 0.211L29.7101 0.211C30.0321 0.211 30.1931 0.372 30.1931 0.693999ZM41.3389 15H33.7719C33.4499 15 33.2889 14.839 33.2889 14.517V0.693999C33.2889 0.372 33.4499 0.211 33.7719 0.211L35.7269 0.211C36.0489 0.211 36.2099 0.372 36.2099 0.693999V12.194C36.2099 12.3627 36.3019 12.447 36.4859 12.447H41.3389C41.6456 12.447 41.7989 12.6157 41.7989 12.953V14.517C41.7989 14.839 41.6456 15 41.3389 15ZM48.198 15H46.266C45.9286 15 45.76 14.839 45.76 14.517V2.994C45.76 2.82533 45.6756 2.741 45.507 2.741H42.885C42.563 2.741 42.402 2.58 42.402 2.258V0.693999C42.402 0.372 42.563 0.211 42.885 0.211L51.579 0.211C51.901 0.211 52.062 0.372 52.062 0.693999V2.258C52.062 2.58 51.901 2.741 51.579 2.741H48.957C48.773 2.741 48.681 2.82533 48.681 2.994V14.517C48.681 14.839 48.52 15 48.198 15ZM61.31 15H59.355C59.033 15 58.872 14.839 58.872 14.517V0.693999C58.872 0.372 59.033 0.211 59.355 0.211L66.692 0.211C66.9986 0.211 67.152 0.372 67.152 0.693999V2.258C67.152 2.58 66.9986 2.741 66.692 2.741H62.069C61.885 2.741 61.793 2.82533 61.793 2.994V6.559C61.793 6.743 61.885 6.835 62.069 6.835H66.002C66.324 6.835 66.485 6.996 66.485 7.318V8.859C66.485 9.19633 66.324 9.365 66.002 9.365H62.069C61.885 9.365 61.793 9.44933 61.793 9.618V14.517C61.793 14.839 61.632 15 61.31 15ZM73.2514 12.47H74.8844C75.3751 12.47 75.7201 12.3703 75.9194 12.171C76.1341 11.9563 76.2414 11.6037 76.2414 11.113V4.098C76.2414 3.60733 76.1341 3.26233 75.9194 3.063C75.7201 2.84833 75.3751 2.741 74.8844 2.741H73.2514C72.7608 2.741 72.4158 2.84833 72.2164 3.063C72.0171 3.26233 71.9174 3.60733 71.9174 4.098V11.113C71.9174 11.6037 72.0171 11.9563 72.2164 12.171C72.4158 12.3703 72.7608 12.47 73.2514 12.47ZM75.3674 15H72.7914C71.5801 15 70.6448 14.678 69.9854 14.034C69.3261 13.39 68.9964 12.4623 68.9964 11.251V3.96C68.9964 2.74867 69.3261 1.821 69.9854 1.177C70.6448 0.533 71.5801 0.211 72.7914 0.211L75.3674 0.211C76.5788 0.211 77.5141 0.533 78.1734 1.177C78.8328 1.821 79.1624 2.74867 79.1624 3.96V11.251C79.1624 12.4623 78.8328 13.39 78.1734 14.034C77.5141 14.678 76.5788 15 75.3674 15ZM84.3549 15H82.3999C82.0779 15 81.9169 14.839 81.9169 14.517V0.693999C81.9169 0.372 82.0779 0.211 82.3999 0.211L87.8739 0.211C89.0699 0.211 90.0052 0.540666 90.6799 1.2C91.3545 1.85933 91.6919 2.787 91.6919 3.983V5.777C91.6919 7.50967 91.0095 8.65967 89.6449 9.227V9.319L92.1059 14.448C92.2439 14.816 92.1135 15 91.7149 15H89.8519C89.5759 15 89.3765 14.9693 89.2539 14.908C89.1312 14.8467 89.0315 14.7163 88.9549 14.517L86.6549 9.549H85.1139C84.9299 9.549 84.8379 9.63333 84.8379 9.802V14.517C84.8379 14.839 84.6769 15 84.3549 15ZM85.0909 7.203H87.3449C87.8355 7.203 88.1959 7.10333 88.4259 6.904C88.6559 6.68933 88.7709 6.352 88.7709 5.892V4.098C88.7709 3.62267 88.6559 3.27767 88.4259 3.063C88.1959 2.84833 87.8355 2.741 87.3449 2.741H85.0909C84.9222 2.741 84.8379 2.82533 84.8379 2.994V6.95C84.8379 7.11867 84.9222 7.203 85.0909 7.203Z" fill="#1C1C1C"/>
<path opacity="0.5" d="M103.634 15H102.967C102.814 15 102.737 14.908 102.737 14.724V0.486999C102.737 0.303 102.814 0.211 102.967 0.211L110.051 0.211C110.235 0.211 110.327 0.295333 110.327 0.463999V0.992999C110.327 1.16167 110.235 1.246 110.051 1.246H104.117C103.964 1.246 103.887 1.315 103.887 1.453V7.042C103.887 7.16467 103.964 7.226 104.117 7.226H109.43C109.599 7.226 109.683 7.31033 109.683 7.479V8.031C109.683 8.19967 109.599 8.284 109.43 8.284H104.117C103.964 8.284 103.887 8.34533 103.887 8.468V14.724C103.887 14.908 103.803 15 103.634 15ZM114.559 0.486999V14.724C114.559 14.908 114.475 15 114.306 15H113.639C113.486 15 113.409 14.908 113.409 14.724V0.486999C113.409 0.303 113.486 0.211 113.639 0.211H114.306C114.475 0.211 114.559 0.303 114.559 0.486999ZM124.092 15H121.585C120.588 15 119.798 14.7087 119.216 14.126C118.648 13.5433 118.365 12.746 118.365 11.734V3.477C118.365 2.465 118.648 1.66767 119.216 1.085C119.798 0.502333 120.588 0.211 121.585 0.211L124.092 0.211C125.088 0.211 125.878 0.502333 126.461 1.085C127.043 1.66767 127.335 2.465 127.335 3.477V4.512C127.335 4.696 127.25 4.788 127.082 4.788H126.415C126.246 4.788 126.162 4.696 126.162 4.512V3.523C126.162 2.787 125.978 2.22733 125.61 1.844C125.242 1.44533 124.705 1.246 124 1.246H121.677C120.971 1.246 120.435 1.44533 120.067 1.844C119.699 2.24267 119.515 2.80233 119.515 3.523V11.688C119.515 12.4087 119.699 12.9683 120.067 13.367C120.435 13.7657 120.971 13.965 121.677 13.965H124C124.705 13.965 125.242 13.7733 125.61 13.39C125.978 12.9913 126.162 12.424 126.162 11.688V8.652C126.162 8.514 126.093 8.445 125.955 8.445H123.31C123.141 8.445 123.057 8.36067 123.057 8.192V7.663C123.057 7.49433 123.141 7.41 123.31 7.41H126.898C127.189 7.41 127.335 7.56333 127.335 7.87V11.734C127.335 12.746 127.043 13.5433 126.461 14.126C125.878 14.7087 125.088 15 124.092 15ZM131.89 15H131.223C131.07 15 130.993 14.908 130.993 14.724V0.486999C130.993 0.303 131.07 0.211 131.223 0.211L131.89 0.211C132.059 0.211 132.143 0.303 132.143 0.486999V6.766C132.143 6.904 132.22 6.973 132.373 6.973H138.813C138.966 6.973 139.043 6.904 139.043 6.766V0.486999C139.043 0.303 139.12 0.211 139.273 0.211L139.94 0.211C140.109 0.211 140.193 0.303 140.193 0.486999V14.724C140.193 14.908 140.109 15 139.94 15H139.273C139.12 15 139.043 14.908 139.043 14.724V8.215C139.043 8.077 138.966 8.008 138.813 8.008H132.373C132.22 8.008 132.143 8.077 132.143 8.215V14.724C132.143 14.908 132.059 15 131.89 15ZM147.33 15H146.663C146.495 15 146.41 14.908 146.41 14.724V1.453C146.41 1.315 146.334 1.246 146.18 1.246L142.845 1.246C142.661 1.246 142.569 1.16167 142.569 0.992999V0.463999C142.569 0.295333 142.661 0.211 142.845 0.211L151.125 0.211C151.309 0.211 151.401 0.295333 151.401 0.463999V0.992999C151.401 1.16167 151.309 1.246 151.125 1.246H147.79C147.637 1.246 147.56 1.315 147.56 1.453V14.724C147.56 14.908 147.484 15 147.33 15ZM160.797 15H160.13C159.977 15 159.9 14.908 159.9 14.724V0.486999C159.9 0.303 159.977 0.211 160.13 0.211L167.214 0.211C167.398 0.211 167.49 0.295333 167.49 0.463999V0.992999C167.49 1.16167 167.398 1.246 167.214 1.246H161.28C161.127 1.246 161.05 1.315 161.05 1.453V7.042C161.05 7.16467 161.127 7.226 161.28 7.226H166.593C166.762 7.226 166.846 7.31033 166.846 7.479V8.031C166.846 8.19967 166.762 8.284 166.593 8.284H161.28C161.127 8.284 161.05 8.34533 161.05 8.468V14.724C161.05 14.908 160.966 15 160.797 15ZM170.066 15H169.353C169.184 15 169.131 14.908 169.192 14.724L173.769 0.486999C173.815 0.303 173.922 0.211 174.091 0.211L175.172 0.211C175.325 0.211 175.433 0.303 175.494 0.486999L180.071 14.724C180.117 14.908 180.063 15 179.91 15H179.174C179.021 15 178.921 14.908 178.875 14.724L177.633 11.044H171.607L170.365 14.724C170.304 14.908 170.204 15 170.066 15ZM174.574 1.476L171.929 10.009H177.334L174.666 1.476H174.574ZM183.618 15H182.951C182.797 15 182.721 14.908 182.721 14.724V0.486999C182.721 0.303 182.797 0.211 182.951 0.211L183.572 0.211C183.71 0.211 183.802 0.257 183.848 0.348999L190.909 12.493H191.001V0.486999C191.001 0.303 191.085 0.211 191.254 0.211L191.898 0.211C192.066 0.211 192.151 0.303 192.151 0.486999V14.724C192.151 14.908 192.066 15 191.898 15H191.369C191.231 15 191.108 14.9157 191.001 14.747L183.963 2.695H183.871V14.724C183.871 14.908 183.786 15 183.618 15ZM195.948 11.734V10.906C195.948 10.7373 196.032 10.653 196.201 10.653H196.868C197.037 10.653 197.121 10.7373 197.121 10.906V11.665C197.121 13.1983 197.865 13.965 199.352 13.965H201.744C203.231 13.965 203.975 13.1907 203.975 11.642V10.676C203.975 10.0013 203.699 9.47233 203.147 9.089C202.595 8.70567 201.928 8.42967 201.146 8.261C200.364 8.09233 199.574 7.916 198.777 7.732C197.995 7.548 197.328 7.21067 196.776 6.72C196.224 6.22933 195.948 5.57 195.948 4.742V3.477C195.948 2.465 196.239 1.66767 196.822 1.085C197.405 0.502333 198.194 0.211 199.191 0.211L201.859 0.211C202.856 0.211 203.645 0.502333 204.228 1.085C204.811 1.66767 205.102 2.465 205.102 3.477V4.121C205.102 4.28967 205.018 4.374 204.849 4.374H204.182C204.013 4.374 203.929 4.28967 203.929 4.121V3.546C203.929 2.01267 203.185 1.246 201.698 1.246L199.329 1.246C197.857 1.246 197.121 2.028 197.121 3.592V4.742C197.121 5.8 198.064 6.513 199.95 6.881C200.732 7.03433 201.514 7.21067 202.296 7.41C203.093 7.60933 203.768 7.96967 204.32 8.491C204.872 9.01233 205.148 9.71767 205.148 10.607V11.734C205.148 12.746 204.857 13.5433 204.274 14.126C203.691 14.7087 202.902 15 201.905 15H199.191C198.194 15 197.405 14.7087 196.822 14.126C196.239 13.5433 195.948 12.746 195.948 11.734Z" fill="#1C1C1C"/>
<path opacity="0.5" d="M37.9366 35.988H42.2146C43.6712 35.988 44.3996 35.252 44.3996 33.78V32.193C44.3996 30.7363 43.6022 30.008 42.0076 30.008H37.9366C37.7832 30.008 37.7066 30.0693 37.7066 30.192V35.781C37.7066 35.919 37.7832 35.988 37.9366 35.988ZM37.9366 28.996H41.9846C42.7052 28.996 43.2572 28.8043 43.6406 28.421C44.0392 28.0377 44.2386 27.4933 44.2386 26.788V25.431C44.2386 23.959 43.5102 23.223 42.0536 23.223H37.9366C37.7832 23.223 37.7066 23.292 37.7066 23.43V28.789C37.7066 28.927 37.7832 28.996 37.9366 28.996ZM36.5566 36.724V22.487C36.5566 22.303 36.6332 22.211 36.7866 22.211H42.1456C43.1422 22.211 43.9319 22.4947 44.5146 23.062C45.0972 23.6293 45.3886 24.4113 45.3886 25.408V26.811C45.3886 28.2063 44.7292 29.1033 43.4106 29.502C43.9779 29.5327 44.4762 29.7933 44.9056 30.284C45.3349 30.7747 45.5496 31.411 45.5496 32.193V33.803C45.5496 34.7997 45.2582 35.5817 44.6756 36.149C44.0929 36.7163 43.3032 37 42.3066 37H36.7866C36.6332 37 36.5566 36.908 36.5566 36.724ZM53.1602 37H52.4932C52.3246 37 52.2402 36.908 52.2402 36.724V31.411L47.7782 22.487C47.6862 22.303 47.7399 22.211 47.9392 22.211H48.7672C48.9052 22.211 49.0126 22.303 49.0892 22.487L52.7692 30.008H52.8842L56.5412 22.487C56.6179 22.303 56.7252 22.211 56.8632 22.211H57.7142C57.8829 22.211 57.9366 22.303 57.8752 22.487L53.3902 31.411V36.724C53.3902 36.908 53.3136 37 53.1602 37Z" fill="#1C1C1C"/>
<path d="M69.9008 37H67.9458C67.6238 37 67.4628 36.839 67.4628 36.517V22.694C67.4628 22.372 67.6238 22.211 67.9458 22.211H75.2828C75.5894 22.211 75.7428 22.372 75.7428 22.694V24.258C75.7428 24.58 75.5894 24.741 75.2828 24.741H70.6598C70.4758 24.741 70.3838 24.8253 70.3838 24.994V28.559C70.3838 28.743 70.4758 28.835 70.6598 28.835H74.5928C74.9148 28.835 75.0758 28.996 75.0758 29.318V30.859C75.0758 31.1963 74.9148 31.365 74.5928 31.365H70.6598C70.4758 31.365 70.3838 31.4493 70.3838 31.618V36.517C70.3838 36.839 70.2228 37 69.9008 37ZM80.8533 22.694V36.517C80.8533 36.839 80.6923 37 80.3703 37H78.4153C78.0933 37 77.9323 36.839 77.9323 36.517V22.694C77.9323 22.372 78.0933 22.211 78.4153 22.211H80.3703C80.6923 22.211 80.8533 22.372 80.8533 22.694ZM89.9521 37H87.5141C86.3028 37 85.3674 36.678 84.7081 36.034C84.0488 35.39 83.7191 34.4623 83.7191 33.251V25.96C83.7191 24.7487 84.0488 23.821 84.7081 23.177C85.3674 22.533 86.3028 22.211 87.5141 22.211H89.9521C91.1481 22.211 92.0758 22.5407 92.7351 23.2C93.3944 23.844 93.7241 24.764 93.7241 25.96V26.65C93.7241 26.9873 93.5631 27.156 93.2411 27.156H91.2861C90.9641 27.156 90.8031 26.9873 90.8031 26.65V26.098C90.8031 25.6073 90.7034 25.2623 90.5041 25.063C90.3048 24.8483 89.9598 24.741 89.4691 24.741H87.9741C87.4988 24.741 87.1538 24.8483 86.9391 25.063C86.7398 25.2623 86.6401 25.6073 86.6401 26.098V33.113C86.6401 33.6037 86.7398 33.9563 86.9391 34.171C87.1538 34.3703 87.4988 34.47 87.9741 34.47H89.4691C89.9598 34.47 90.3048 34.3703 90.5041 34.171C90.7034 33.9563 90.8031 33.6037 90.8031 33.113V31.664C90.8031 31.4953 90.7188 31.411 90.5501 31.411H89.1701C88.8481 31.411 88.6871 31.25 88.6871 30.928V29.364C88.6871 29.042 88.8481 28.881 89.1701 28.881H93.1951C93.5478 28.881 93.7241 29.0573 93.7241 29.41V33.251C93.7241 34.447 93.3944 35.3747 92.7351 36.034C92.0758 36.678 91.1481 37 89.9521 37ZM98.9203 37H96.9653C96.6433 37 96.4823 36.839 96.4823 36.517V22.694C96.4823 22.372 96.6433 22.211 96.9653 22.211H98.9203C99.2423 22.211 99.4033 22.372 99.4033 22.694V28.099C99.4033 28.2677 99.4953 28.352 99.6793 28.352H103.566C103.735 28.352 103.819 28.2677 103.819 28.099V22.694C103.819 22.372 103.98 22.211 104.302 22.211H106.257C106.579 22.211 106.74 22.372 106.74 22.694V36.517C106.74 36.839 106.579 37 106.257 37H104.302C103.98 37 103.819 36.839 103.819 36.517V31.135C103.819 30.9663 103.735 30.882 103.566 30.882H99.6793C99.4953 30.882 99.4033 30.9663 99.4033 31.135V36.517C99.4033 36.839 99.2423 37 98.9203 37ZM114.311 37H112.379C112.042 37 111.873 36.839 111.873 36.517V24.994C111.873 24.8253 111.789 24.741 111.62 24.741H108.998C108.676 24.741 108.515 24.58 108.515 24.258V22.694C108.515 22.372 108.676 22.211 108.998 22.211H117.692C118.014 22.211 118.175 22.372 118.175 22.694V24.258C118.175 24.58 118.014 24.741 117.692 24.741H115.07C114.886 24.741 114.794 24.8253 114.794 24.994V36.517C114.794 36.839 114.633 37 114.311 37ZM127.423 37H125.468C125.146 37 124.985 36.839 124.985 36.517V22.694C124.985 22.372 125.146 22.211 125.468 22.211L132.805 22.211C133.112 22.211 133.265 22.372 133.265 22.694V24.258C133.265 24.58 133.112 24.741 132.805 24.741H128.182C127.998 24.741 127.906 24.8253 127.906 24.994V28.559C127.906 28.743 127.998 28.835 128.182 28.835H132.115C132.437 28.835 132.598 28.996 132.598 29.318V30.859C132.598 31.1963 132.437 31.365 132.115 31.365H128.182C127.998 31.365 127.906 31.4493 127.906 31.618V36.517C127.906 36.839 127.745 37 127.423 37ZM136.881 37H134.673C134.397 37 134.305 36.839 134.397 36.517L138.031 22.694C138.138 22.372 138.368 22.211 138.721 22.211H141.78C142.163 22.211 142.393 22.372 142.47 22.694L146.104 36.517C146.196 36.839 146.104 37 145.828 37H143.62C143.451 37 143.336 36.9693 143.275 36.908C143.213 36.8313 143.167 36.701 143.137 36.517L142.493 33.987H138.008L137.364 36.517C137.333 36.701 137.279 36.8313 137.203 36.908C137.141 36.9693 137.034 37 136.881 37ZM140.216 24.994L138.56 31.641H141.964L140.308 24.994H140.216ZM150.534 37H148.625C148.303 37 148.142 36.839 148.142 36.517V22.694C148.142 22.372 148.303 22.211 148.625 22.211H150.35C150.672 22.211 150.887 22.3183 150.994 22.533L155.64 31.25H155.732V22.694C155.732 22.372 155.893 22.211 156.215 22.211H158.124C158.446 22.211 158.607 22.372 158.607 22.694V36.517C158.607 36.839 158.446 37 158.124 37H156.445C156.108 37 155.863 36.8467 155.709 36.54L151.109 27.984H151.017V36.517C151.017 36.839 150.856 37 150.534 37ZM161.229 33.228V32.768C161.229 32.446 161.39 32.285 161.712 32.285H163.667C163.989 32.285 164.15 32.446 164.15 32.768V32.952C164.15 33.5347 164.265 33.9333 164.495 34.148C164.725 34.3627 165.146 34.47 165.76 34.47H166.841C167.439 34.47 167.853 34.355 168.083 34.125C168.328 33.895 168.451 33.4657 168.451 32.837V32.561C168.451 32.1163 168.267 31.779 167.899 31.549C167.546 31.3037 167.101 31.158 166.565 31.112C166.028 31.066 165.445 30.9817 164.817 30.859C164.203 30.721 163.628 30.5523 163.092 30.353C162.555 30.1383 162.103 29.732 161.735 29.134C161.382 28.5207 161.206 27.7387 161.206 26.788V25.983C161.206 24.787 161.543 23.8593 162.218 23.2C162.892 22.5407 163.828 22.211 165.024 22.211H167.324C168.535 22.211 169.478 22.5407 170.153 23.2C170.827 23.8593 171.165 24.787 171.165 25.983V26.42C171.165 26.742 171.004 26.903 170.682 26.903H168.727C168.405 26.903 168.244 26.742 168.244 26.42V26.282C168.244 25.684 168.129 25.2777 167.899 25.063C167.669 24.8483 167.247 24.741 166.634 24.741H165.737C165.108 24.741 164.679 24.8637 164.449 25.109C164.234 25.339 164.127 25.799 164.127 26.489V26.926C164.127 27.6467 164.755 28.0607 166.013 28.168C167.316 28.2753 168.474 28.536 169.486 28.95C170.022 29.18 170.467 29.594 170.82 30.192C171.188 30.7747 171.372 31.526 171.372 32.446V33.228C171.372 34.424 171.034 35.3517 170.36 36.011C169.685 36.6703 168.75 37 167.554 37H165.047C163.851 37 162.915 36.6703 162.241 36.011C161.566 35.3517 161.229 34.424 161.229 33.228Z" fill="#1C1C1C"/>
</svg>
